<svg width="4096" height="4096" viewBox="0 0 4096 4096" fill="none" xmlns="http://www.w3.org/2000/svg">
<rect width="4096" height="4096" rx="392" fill="#125239"/>
<path d="M1964.82 2257.5C1899.62 2322.7 1745.15 2383.83 1689.32 2403V2257.5H1964.82Z" fill="#D0D2D2" stroke="#302F2C" stroke-width="50"/>
<rect x="1705.32" y="1512" width="687" height="203" rx="55" fill="#748080" stroke="#302F2C" stroke-width="50"/>
<path d="M2387.32 1583.5H1711.32V1545L1764.32 1516.5H2344.82L2374.32 1527L2387.32 1583.5Z" fill="#D0D2D2"/>
<rect x="1705.32" y="1512" width="687" height="203" rx="55" stroke="#302F2C" stroke-width="50"/>
<path d="M1771.32 1433C1771.32 1333.04 1852.35 1252 1952.32 1252H2142.32C2242.28 1252 2323.32 1333.04 2323.32 1433V1762C2323.32 1839.87 2260.19 1903 2182.32 1903H1912.32C1834.44 1903 1771.32 1839.87 1771.32 1762V1433Z" fill="#D0D2D2"/>
<path d="M1820.5 1499C1820.5 1410.63 1892.13 1339 1980.5 1339H2114.5C2202.87 1339 2274.5 1410.63 2274.5 1499V1762C2274.5 1839.87 2211.37 1903 2133.5 1903H1961.5C1883.63 1903 1820.5 1839.87 1820.5 1762V1499Z" fill="#939D9E"/>
<path d="M2183.82 1708C2166.62 1729.6 2176.65 1830.33 2183.82 1878L2258.82 1848L2294.82 1778.5V1626C2264.98 1644.33 2201.02 1686.4 2183.82 1708Z" fill="#748080"/>
<path d="M1920.32 1708C1937.52 1729.6 1927.48 1830.33 1920.32 1878L1845.32 1848L1809.32 1778.5V1626C1839.15 1644.33 1903.12 1686.4 1920.32 1708Z" fill="#748080"/>
<path d="M1952.32 1277H2142.32C2228.47 1277 2298.32 1346.84 2298.32 1433V1762C2298.32 1826.07 2246.38 1878 2182.32 1878H1912.32C1848.25 1878 1796.32 1826.07 1796.32 1762V1433C1796.32 1346.84 1866.16 1277 1952.32 1277Z" stroke="#302F2C" stroke-width="50"/>
<line x1="1894.32" y1="1573" x2="1977.32" y2="1573" stroke="#302F2C" stroke-width="50" stroke-linecap="round"/>
<line x1="2117.32" y1="1573" x2="2200.32" y2="1573" stroke="#302F2C" stroke-width="50" stroke-linecap="round"/>
<path d="M2183.32 1900.5C2183.32 1867.33 2183.32 1853 2183.32 1761C2183.32 1669 2268.98 1638.67 2306.32 1627" stroke="#302F2C" stroke-width="50"/>
<path d="M1910.32 1900.5C1910.32 1867.33 1910.32 1853 1910.32 1761C1910.32 1669 1824.65 1638.67 1787.32 1627" stroke="#302F2C" stroke-width="50"/>
<path d="M2044.36 755.419C2046.19 754.378 2048.44 754.378 2050.28 755.419L2189.88 834.589C2191.76 835.654 2192.92 837.648 2192.92 839.808V997.192C2192.92 999.352 2191.76 1001.35 2189.88 1002.41L2050.28 1081.58C2048.44 1082.62 2046.19 1082.62 2044.36 1081.58L1904.75 1002.41C1902.87 1001.35 1901.71 999.352 1901.71 997.192V839.808C1901.71 837.648 1902.87 835.654 1904.75 834.589L2044.36 755.419Z" fill="#16D768" stroke="#302F2C" stroke-width="50"/>
<path d="M1908.32 843L2047.32 918.5V1086" stroke="#302F2C" stroke-width="50"/>
<path d="M2186.32 843L2047.32 918.5V1086" stroke="#302F2C" stroke-width="50"/>
<path d="M1485.36 963.419C1487.19 962.378 1489.44 962.378 1491.28 963.419L1630.88 1042.59C1632.76 1043.65 1633.92 1045.65 1633.92 1047.81V1205.19C1633.92 1207.35 1632.76 1209.35 1630.88 1210.41L1491.28 1289.58C1489.44 1290.62 1487.19 1290.62 1485.36 1289.58L1345.75 1210.41C1343.87 1209.35 1342.71 1207.35 1342.71 1205.19V1047.81C1342.71 1045.65 1343.87 1043.65 1345.75 1042.59L1485.36 963.419Z" fill="#16D768" stroke="#302F2C" stroke-width="50"/>
<path d="M1349.32 1051L1488.32 1126.5V1294" stroke="#302F2C" stroke-width="50"/>
<path d="M1627.32 1051L1488.32 1126.5V1294" stroke="#302F2C" stroke-width="50"/>
<path d="M2609.28 963.419C2607.44 962.378 2605.19 962.378 2603.36 963.419L2463.75 1042.59C2461.87 1043.65 2460.71 1045.65 2460.71 1047.81V1205.19C2460.71 1207.35 2461.87 1209.35 2463.75 1210.41L2603.36 1289.58C2605.19 1290.62 2607.44 1290.62 2609.28 1289.58L2748.88 1210.41C2750.76 1209.35 2751.92 1207.35 2751.92 1205.19V1047.81C2751.92 1045.65 2750.76 1043.65 2748.88 1042.59L2609.28 963.419Z" fill="#16D768" stroke="#302F2C" stroke-width="50"/>
<path d="M2745.32 1051L2606.32 1126.5V1294" stroke="#302F2C" stroke-width="50"/>
<path d="M2467.32 1051L2606.32 1126.5V1294" stroke="#302F2C" stroke-width="50"/>
<path d="M1222.36 1464.42C1224.19 1463.38 1226.44 1463.38 1228.28 1464.42L1367.88 1543.59C1369.76 1544.65 1370.92 1546.65 1370.92 1548.81V1706.19C1370.92 1708.35 1369.76 1710.35 1367.88 1711.41L1228.28 1790.58C1226.44 1791.62 1224.19 1791.62 1222.36 1790.58L1082.75 1711.41C1080.87 1710.35 1079.71 1708.35 1079.71 1706.19V1548.81C1079.71 1546.65 1080.87 1544.65 1082.75 1543.59L1222.36 1464.42Z" fill="#16D768" stroke="#302F2C" stroke-width="50"/>
<path d="M1086.32 1552L1225.32 1627.5V1795" stroke="#302F2C" stroke-width="50"/>
<path d="M1364.32 1552L1225.32 1627.5V1795" stroke="#302F2C" stroke-width="50"/>
<path d="M2872.28 1464.42C2870.44 1463.38 2868.19 1463.38 2866.36 1464.42L2726.75 1543.59C2724.87 1544.65 2723.71 1546.65 2723.71 1548.81V1706.19C2723.71 1708.35 2724.87 1710.35 2726.75 1711.41L2866.36 1790.58C2868.19 1791.62 2870.44 1791.62 2872.28 1790.58L3011.88 1711.41C3013.76 1710.35 3014.92 1708.35 3014.92 1706.19V1548.81C3014.92 1546.65 3013.76 1544.65 3011.88 1543.59L2872.28 1464.42Z" fill="#16D768" stroke="#302F2C" stroke-width="50"/>
<path d="M3008.32 1552L2869.32 1627.5V1795" stroke="#302F2C" stroke-width="50"/>
<path d="M2730.32 1552L2869.32 1627.5V1795" stroke="#302F2C" stroke-width="50"/>
<rect x="1937.5" y="1875" width="223" height="201" fill="#748080" stroke="#302F2C" stroke-width="50"/>
<path d="M1722.11 2167.22L1597.14 2637.48C1593.27 2652.01 1583.63 2664.33 1570.45 2671.57L1213.21 2867.65L1131.04 2720.76L1433.26 2535.47L1441.85 2530.21L1444.38 2520.45L1548.38 2120.67L1722.11 2167.22Z" fill="#909C9D" stroke="#302F2C" stroke-width="50"/>
<path d="M1262 2688L1493.5 2540.5L1479.5 2533.5L1568.5 2222" stroke="#D0D2D2" stroke-width="50"/>
<path d="M1432.5 2531C1496.5 2502.5 1579.6 2568.75 1588 2649.55" stroke="#302F2C" stroke-width="50"/>
<path d="M1722.11 2167.22L1597.14 2637.48C1593.27 2652.01 1583.63 2664.33 1570.45 2671.57L1213.21 2867.65L1131.04 2720.76L1433.26 2535.47L1441.85 2530.21L1444.38 2520.45L1548.38 2120.67L1722.11 2167.22Z" stroke="#302F2C" stroke-width="50"/>
<path d="M1039 2776L917 2770.5L945 2754.5V2723.5L939.5 2657L976.5 2598H1018.5L1039 2625.5V2673.5V2776Z" fill="#909C9D"/>
<path d="M1057.7 2591.94C1070.96 2568.98 1100.32 2561.11 1123.28 2574.37L1178.63 2606.33C1195.92 2616.31 1204.7 2635.47 1202.24 2654.19L1202.11 2655.08C1200.04 2668.86 1209.22 2681.99 1223.14 2684.55C1247.18 2688.96 1269.13 2703.32 1282.53 2725.78C1308.11 2768.65 1292.69 2824.19 1248.67 2847.74L1143.5 2904L1016.59 2891.09C1003.2 2889.73 990.588 2884.19 980.534 2875.25L918.873 2820.41C896.889 2800.86 910.717 2764.5 940.138 2764.5H1032.15L1038.03 2761.02L1100.32 2724.19C1117.59 2713.99 1118.84 2689.47 1102.69 2677.56L1077.61 2659.06L1076.48 2658.22L1075.27 2657.52C1052.31 2644.27 1044.44 2614.9 1057.7 2591.94Z" fill="#909C9D" stroke="#302F2C" stroke-width="50"/>
<path d="M1086.5 2732.5L1220 2662" stroke="#748080" stroke-width="50"/>
<path d="M1142.15 2912.5C1127.65 2836.5 1017.15 2762.5 1017.15 2762.5" stroke="#302F2C" stroke-width="50"/>
<path d="M1057.7 2591.94C1070.96 2568.98 1100.32 2561.11 1123.28 2574.37L1178.63 2606.33C1195.92 2616.31 1204.7 2635.47 1202.24 2654.19L1202.11 2655.08C1200.04 2668.86 1209.22 2681.99 1223.14 2684.55C1247.18 2688.96 1269.13 2703.32 1282.53 2725.78C1308.11 2768.65 1292.69 2824.19 1248.67 2847.74L1248.49 2847.83L1248.31 2847.93L1144.37 2905.75L1016.91 2891.13L1016.75 2891.11L1016.59 2891.09L1015.34 2890.95C1002.42 2889.38 990.274 2883.91 980.534 2875.25L918.873 2820.41C896.889 2800.86 910.717 2764.5 940.138 2764.5H1032.15L1038.03 2761.02L1100.32 2724.19C1117.59 2713.99 1118.84 2689.47 1102.69 2677.56L1077.61 2659.06L1076.48 2658.22L1075.27 2657.52C1052.31 2644.27 1044.44 2614.9 1057.7 2591.94Z" stroke="#302F2C" stroke-width="50"/>
<path d="M942.192 2724.76L954 2764H1038C1035.5 2758.5 1031.2 2742.7 1030 2731.5C1029.09 2723.04 1036.97 2687.92 1044.32 2658.82C1048.27 2643.19 1043.7 2626.57 1032.02 2615.47L1028.23 2611.87C1017.48 2601.66 1002.3 2597.55 987.868 2600.96C979.834 2602.86 973.288 2608.66 970.443 2616.41L943.21 2690.59C939.179 2701.56 938.822 2713.56 942.192 2724.76Z" stroke="#302F2C" stroke-width="50"/>
<path d="M2373.89 2167.22L2498.86 2637.48C2502.73 2652.01 2512.37 2664.33 2525.55 2671.57L2882.79 2867.65L2964.96 2720.76L2662.74 2535.47L2654.15 2530.21L2651.62 2520.45L2547.62 2120.67L2373.89 2167.22Z" fill="#909C9D" stroke="#302F2C" stroke-width="50"/>
<path d="M2834 2688L2602.5 2540.5L2616.5 2533.5L2527.5 2222" stroke="#D0D2D2" stroke-width="50"/>
<path d="M2663.5 2531C2599.5 2502.5 2516.4 2568.75 2508 2649.55" stroke="#302F2C" stroke-width="50"/>
<path d="M2373.89 2167.22L2498.86 2637.48C2502.73 2652.01 2512.37 2664.33 2525.55 2671.57L2882.79 2867.65L2964.96 2720.76L2662.74 2535.47L2654.15 2530.21L2651.62 2520.45L2547.62 2120.67L2373.89 2167.22Z" stroke="#302F2C" stroke-width="50"/>
<path d="M3057 2776L3179 2770.5L3151 2754.5V2723.5L3156.5 2657L3119.5 2598H3077.5L3057 2625.5V2673.5V2776Z" fill="#909C9D"/>
<path d="M3038.3 2591.94C3025.04 2568.98 2995.68 2561.11 2972.72 2574.37L2917.37 2606.33C2900.08 2616.31 2891.3 2635.47 2893.76 2654.19L2893.89 2655.08C2895.96 2668.86 2886.78 2681.99 2872.86 2684.55C2848.82 2688.96 2826.87 2703.32 2813.47 2725.78C2787.89 2768.65 2803.31 2824.19 2847.33 2847.74L2952.5 2904L3079.41 2891.09C3092.8 2889.73 3105.41 2884.19 3115.47 2875.25L3177.13 2820.41C3199.11 2800.86 3185.28 2764.5 3155.86 2764.5H3063.85L3057.97 2761.02L2995.68 2724.19C2978.41 2713.99 2977.16 2689.47 2993.31 2677.56L3018.39 2659.06L3019.52 2658.22L3020.73 2657.52C3043.69 2644.27 3051.56 2614.9 3038.3 2591.94Z" fill="#909C9D" stroke="#302F2C" stroke-width="50"/>
<path d="M3009.5 2732.5L2876 2662" stroke="#748080" stroke-width="50"/>
<path d="M2953.85 2912.5C2968.35 2836.5 3078.85 2762.5 3078.85 2762.5" stroke="#302F2C" stroke-width="50"/>
<path d="M3038.3 2591.94C3025.04 2568.98 2995.68 2561.11 2972.72 2574.37L2917.37 2606.33C2900.08 2616.31 2891.3 2635.47 2893.76 2654.19L2893.89 2655.08C2895.96 2668.86 2886.78 2681.99 2872.86 2684.55C2848.82 2688.96 2826.87 2703.32 2813.47 2725.78C2787.89 2768.65 2803.31 2824.19 2847.33 2847.74L2847.51 2847.83L2847.69 2847.93L2951.63 2905.75L3079.09 2891.13L3079.25 2891.11L3079.41 2891.09L3080.66 2890.95C3093.58 2889.38 3105.73 2883.91 3115.47 2875.25L3177.13 2820.41C3199.11 2800.86 3185.28 2764.5 3155.86 2764.5H3063.85L3057.97 2761.02L2995.68 2724.19C2978.41 2713.99 2977.16 2689.47 2993.31 2677.56L3018.39 2659.06L3019.52 2658.22L3020.73 2657.52C3043.69 2644.27 3051.56 2614.9 3038.3 2591.94Z" stroke="#302F2C" stroke-width="50"/>
<path d="M3153.81 2724.76L3142 2764H3058C3060.5 2758.5 3064.8 2742.7 3066 2731.5C3066.91 2723.04 3059.03 2687.92 3051.68 2658.82C3047.73 2643.19 3052.3 2626.57 3063.98 2615.47L3067.77 2611.87C3078.52 2601.66 3093.7 2597.55 3108.13 2600.96C3116.17 2602.86 3122.71 2608.66 3125.56 2616.41L3152.79 2690.59C3156.82 2701.56 3157.18 2713.56 3153.81 2724.76Z" stroke="#302F2C" stroke-width="50"/>
<rect x="1522.5" y="1969" width="1053" height="294" rx="147" fill="#748080" stroke="#302F2C" stroke-width="50"/>
<rect x="1536.5" y="1989" width="1018" height="278" rx="132" fill="#D0D2D2"/>
<rect x="1536.5" y="2044" width="1018" height="223" rx="111.5" fill="#748080"/>
<rect x="1522.5" y="1969" width="1053" height="294" rx="147" stroke="#302F2C" stroke-width="50"/>
<mask id="path-55-inside-1_6_2267" fill="white">
<path d="M1680.5 2044C1680.5 1988.77 1725.27 1944 1780.5 1944H2389.5C2404.96 1944 2417.5 1956.54 2417.5 1972V2822C2417.5 2877.23 2372.73 2922 2317.5 2922H1780.5C1725.27 2922 1680.5 2877.23 1680.5 2822V2044Z"/>
</mask>
<path d="M1680.5 2044C1680.5 1988.77 1725.27 1944 1780.5 1944H2389.5C2404.96 1944 2417.5 1956.54 2417.5 1972V2822C2417.5 2877.23 2372.73 2922 2317.5 2922H1780.5C1725.27 2922 1680.5 2877.23 1680.5 2822V2044Z" fill="#FC991A" stroke="#302F2C" stroke-width="100" mask="url(#path-55-inside-1_6_2267)"/>
<path d="M1709 2020V2394H1749.72L1933.46 2302L2110.08 2134L2202.2 1973H2110.08H1749.72L1709 2020Z" fill="#748080"/>
<path d="M2168.42 1989L2167.08 2033L1803.59 2035.77C1786.56 2035.9 1772.83 2049.74 1772.83 2066.77V2396H1730.83V2041C1730.83 2015.04 1751.87 1989 1777.83 1989H2168.42Z" fill="#D0D2D2"/>
<mask id="path-58-inside-2_6_2267" fill="white">
<path d="M1680.5 2044C1680.5 1988.77 1725.27 1944 1780.5 1944H2389.5C2404.96 1944 2417.5 1956.54 2417.5 1972V2822C2417.5 2877.23 2372.73 2922 2317.5 2922H1780.5C1725.27 2922 1680.5 2877.23 1680.5 2822V2044Z"/>
</mask>
<path d="M1680.5 2044C1680.5 1988.77 1725.27 1944 1780.5 1944H2389.5C2404.96 1944 2417.5 1956.54 2417.5 1972V2822C2417.5 2877.23 2372.73 2922 2317.5 2922H1780.5C1725.27 2922 1680.5 2877.23 1680.5 2822V2044Z" stroke="#302F2C" stroke-width="100" stroke-linejoin="round" mask="url(#path-58-inside-2_6_2267)"/>
<path d="M1704.93 2405C1830.82 2372.17 2107.12 2239.5 2205.26 1971.5" stroke="#302F2C" stroke-width="50"/>
<path d="M2310.89 2458.33C2313 2444.68 2303.65 2431.91 2290.01 2429.79C2276.37 2427.68 2263.59 2437.03 2261.48 2450.67L2286.18 2454.5L2310.89 2458.33ZM1696.28 2662.5L1698.56 2687.4C1880.55 2670.7 2264.78 2506.16 2332.87 1963.61L2308.07 1960.5L2283.26 1957.39C2218.62 2472.44 1857.09 2622.64 1693.99 2637.6L1696.28 2662.5ZM1921.25 2853.5L1931.71 2876.2C1985.06 2851.6 2070.72 2801.08 2147.38 2730.55C2223.74 2660.29 2293.96 2567.58 2310.89 2458.33L2286.18 2454.5L2261.48 2450.67C2247.05 2543.82 2186.13 2626.95 2113.52 2693.75C2041.21 2760.28 1960.08 2808.06 1910.78 2830.8L1921.25 2853.5Z" fill="#302F2C"/>
<path d="M1710.32 2796L1289.82 2846V3273.5L2786.32 3286.5L2771.32 2838L2394.32 2796C2317.32 2829.5 2126.92 2861 2045.32 2861C1963.72 2861 1795.32 2829.5 1710.32 2796Z" fill="#FC991A" stroke="#302F2C" stroke-width="50"/>
<path d="M2933.1 2897.57C2883.11 2855.26 2820.08 2839.18 2768.55 2844.85C2658.4 2856.97 2475.63 2904.43 2306.3 2953.64C2137.98 3002.56 1985.23 3052.5 1935.32 3069.03V3346H2738.82C2850.43 3346 2920 3305.13 2962 3256.35C3004.81 3206.63 3020.32 3147.12 3020.32 3109.33C3020.32 3007.65 2982.41 2939.29 2933.1 2897.57Z" fill="#FC991A" stroke="#302F2C" stroke-width="50"/>
<path d="M1161.53 2897.57C1211.53 2855.26 1274.55 2839.18 1326.08 2844.85C1436.23 2856.97 1619 2904.43 1788.34 2953.64C1956.65 3002.56 2109.4 3052.5 2159.32 3069.03V3346H1355.82C1244.2 3346 1174.63 3305.13 1132.64 3256.35C1089.82 3206.63 1074.32 3147.12 1074.32 3109.33C1074.32 3007.65 1112.22 2939.29 1161.53 2897.57Z" fill="#FC991A" stroke="#302F2C" stroke-width="50"/>
<path d="M2162.32 3157.41C2162.32 3116.05 2201.5 3085.9 2241.48 3096.52L2420.59 3144.07C2467.59 3156.54 2500.32 3199.08 2500.32 3247.71C2500.32 3301.99 2456.31 3346 2402.03 3346H2162.32V3157.41Z" fill="#D0D2D2" stroke="#302F2C" stroke-width="50"/>
<path d="M2168.32 3156C2158.72 3156 2169.32 3172.67 2162.32 3178.5V3341.5L2299.82 3349L2415.32 3341.5C2425.32 3328.33 2461.24 3316 2469.82 3289.5C2490 3227.18 2445.08 3214.92 2343.69 3187.24L2342.82 3187C2220.11 3153.5 2177.31 3156 2168.32 3156Z" fill="#748080"/>
<path d="M2348.32 3351V3116" stroke="#302F2C" stroke-width="50"/>
<path d="M2162.32 3157.41C2162.32 3116.05 2201.5 3085.9 2241.48 3096.52L2420.59 3144.07C2467.59 3156.54 2500.32 3199.08 2500.32 3247.71C2500.32 3301.99 2456.31 3346 2402.03 3346H2162.32V3157.41Z" stroke="#302F2C" stroke-width="50"/>
</svg>
