<svg width="12200" height="3880" viewBox="0 0 12200 3880" fill="none" xmlns="http://www.w3.org/2000/svg">
<rect width="12200" height="3880" rx="392" fill="#125239"/>
<path d="M2056.82 2149.5C1991.62 2214.7 1837.15 2275.83 1781.32 2295V2149.5H2056.82Z" fill="#D0D2D2" stroke="#302F2C" stroke-width="50"/>
<rect x="1797.32" y="1404" width="687" height="203" rx="55" fill="#748080" stroke="#302F2C" stroke-width="50"/>
<path d="M2479.32 1475.5H1803.32V1437L1856.32 1408.5H2436.82L2466.32 1419L2479.32 1475.5Z" fill="#D0D2D2"/>
<rect x="1797.32" y="1404" width="687" height="203" rx="55" stroke="#302F2C" stroke-width="50"/>
<path d="M1863.32 1325C1863.32 1225.04 1944.35 1144 2044.32 1144H2234.32C2334.28 1144 2415.32 1225.04 2415.32 1325V1654C2415.32 1731.87 2352.19 1795 2274.32 1795H2004.32C1926.44 1795 1863.32 1731.87 1863.32 1654V1325Z" fill="#D0D2D2"/>
<path d="M1912.5 1391C1912.5 1302.63 1984.13 1231 2072.5 1231H2206.5C2294.87 1231 2366.5 1302.63 2366.5 1391V1654C2366.5 1731.87 2303.37 1795 2225.5 1795H2053.5C1975.63 1795 1912.5 1731.87 1912.5 1654V1391Z" fill="#939D9E"/>
<path d="M2275.82 1600C2258.62 1621.6 2268.65 1722.33 2275.82 1770L2350.82 1740L2386.82 1670.5V1518C2356.98 1536.33 2293.02 1578.4 2275.82 1600Z" fill="#748080"/>
<path d="M2012.32 1600C2029.52 1621.6 2019.48 1722.33 2012.32 1770L1937.32 1740L1901.32 1670.5V1518C1931.15 1536.33 1995.12 1578.4 2012.32 1600Z" fill="#748080"/>
<path d="M2044.32 1169H2234.32C2320.47 1169 2390.32 1238.84 2390.32 1325V1654C2390.32 1718.07 2338.38 1770 2274.32 1770H2004.32C1940.25 1770 1888.32 1718.07 1888.32 1654V1325C1888.32 1238.84 1958.16 1169 2044.32 1169Z" stroke="#302F2C" stroke-width="50"/>
<line x1="1986.32" y1="1465" x2="2069.32" y2="1465" stroke="#302F2C" stroke-width="50" stroke-linecap="round"/>
<line x1="2209.32" y1="1465" x2="2292.32" y2="1465" stroke="#302F2C" stroke-width="50" stroke-linecap="round"/>
<path d="M2275.32 1792.5C2275.32 1759.33 2275.32 1745 2275.32 1653C2275.32 1561 2360.98 1530.67 2398.32 1519" stroke="#302F2C" stroke-width="50"/>
<path d="M2002.32 1792.5C2002.32 1759.33 2002.32 1745 2002.32 1653C2002.32 1561 1916.65 1530.67 1879.32 1519" stroke="#302F2C" stroke-width="50"/>
<path d="M2136.36 647.419C2138.19 646.378 2140.44 646.378 2142.28 647.419L2281.88 726.589C2283.76 727.654 2284.92 729.648 2284.92 731.808V889.192C2284.92 891.352 2283.76 893.346 2281.88 894.411L2142.28 973.581C2140.44 974.622 2138.19 974.622 2136.36 973.581L1996.75 894.411C1994.87 893.346 1993.71 891.352 1993.71 889.192V731.808C1993.71 729.648 1994.87 727.654 1996.75 726.589L2136.36 647.419Z" fill="#16D768" stroke="#302F2C" stroke-width="50"/>
<path d="M2000.32 735L2139.32 810.5V978" stroke="#302F2C" stroke-width="50"/>
<path d="M2278.32 735L2139.32 810.5V978" stroke="#302F2C" stroke-width="50"/>
<path d="M1577.36 855.419C1579.19 854.378 1581.44 854.378 1583.28 855.419L1722.88 934.589C1724.76 935.654 1725.92 937.648 1725.92 939.808V1097.19C1725.92 1099.35 1724.76 1101.35 1722.88 1102.41L1583.28 1181.58C1581.44 1182.62 1579.19 1182.62 1577.36 1181.58L1437.75 1102.41C1435.87 1101.35 1434.71 1099.35 1434.71 1097.19V939.808C1434.71 937.648 1435.87 935.654 1437.75 934.589L1577.36 855.419Z" fill="#16D768" stroke="#302F2C" stroke-width="50"/>
<path d="M1441.32 943L1580.32 1018.5V1186" stroke="#302F2C" stroke-width="50"/>
<path d="M1719.32 943L1580.32 1018.5V1186" stroke="#302F2C" stroke-width="50"/>
<path d="M2701.28 855.419C2699.44 854.378 2697.19 854.378 2695.36 855.419L2555.75 934.589C2553.87 935.654 2552.71 937.648 2552.71 939.808V1097.19C2552.71 1099.35 2553.87 1101.35 2555.75 1102.41L2695.36 1181.58C2697.19 1182.62 2699.44 1182.62 2701.28 1181.58L2840.88 1102.41C2842.76 1101.35 2843.92 1099.35 2843.92 1097.19V939.808C2843.92 937.648 2842.76 935.654 2840.88 934.589L2701.28 855.419Z" fill="#16D768" stroke="#302F2C" stroke-width="50"/>
<path d="M2837.32 943L2698.32 1018.5V1186" stroke="#302F2C" stroke-width="50"/>
<path d="M2559.32 943L2698.32 1018.5V1186" stroke="#302F2C" stroke-width="50"/>
<path d="M1314.36 1356.42C1316.19 1355.38 1318.44 1355.38 1320.28 1356.42L1459.88 1435.59C1461.76 1436.65 1462.92 1438.65 1462.92 1440.81V1598.19C1462.92 1600.35 1461.76 1602.35 1459.88 1603.41L1320.28 1682.58C1318.44 1683.62 1316.19 1683.62 1314.36 1682.58L1174.75 1603.41C1172.87 1602.35 1171.71 1600.35 1171.71 1598.19V1440.81C1171.71 1438.65 1172.87 1436.65 1174.75 1435.59L1314.36 1356.42Z" fill="#16D768" stroke="#302F2C" stroke-width="50"/>
<path d="M1178.32 1444L1317.32 1519.5V1687" stroke="#302F2C" stroke-width="50"/>
<path d="M1456.32 1444L1317.32 1519.5V1687" stroke="#302F2C" stroke-width="50"/>
<path d="M2964.28 1356.42C2962.44 1355.38 2960.19 1355.38 2958.36 1356.42L2818.75 1435.59C2816.87 1436.65 2815.71 1438.65 2815.71 1440.81V1598.19C2815.71 1600.35 2816.87 1602.35 2818.75 1603.41L2958.36 1682.58C2960.19 1683.62 2962.44 1683.62 2964.28 1682.58L3103.88 1603.41C3105.76 1602.35 3106.92 1600.35 3106.92 1598.19V1440.81C3106.92 1438.65 3105.76 1436.65 3103.88 1435.59L2964.28 1356.42Z" fill="#16D768" stroke="#302F2C" stroke-width="50"/>
<path d="M3100.32 1444L2961.32 1519.5V1687" stroke="#302F2C" stroke-width="50"/>
<path d="M2822.32 1444L2961.32 1519.5V1687" stroke="#302F2C" stroke-width="50"/>
<rect x="2029.5" y="1767" width="223" height="201" fill="#748080" stroke="#302F2C" stroke-width="50"/>
<path d="M1814.11 2059.22L1689.14 2529.48C1685.27 2544.01 1675.63 2556.33 1662.45 2563.57L1305.21 2759.65L1223.04 2612.76L1525.26 2427.47L1533.85 2422.21L1536.38 2412.45L1640.38 2012.67L1814.11 2059.22Z" fill="#909C9D" stroke="#302F2C" stroke-width="50"/>
<path d="M1354 2580L1585.5 2432.5L1571.5 2425.5L1660.5 2114" stroke="#D0D2D2" stroke-width="50"/>
<path d="M1524.5 2423C1588.5 2394.5 1671.6 2460.75 1680 2541.55" stroke="#302F2C" stroke-width="50"/>
<path d="M1814.11 2059.22L1689.14 2529.48C1685.27 2544.01 1675.63 2556.33 1662.45 2563.57L1305.21 2759.65L1223.04 2612.76L1525.26 2427.47L1533.85 2422.21L1536.38 2412.45L1640.38 2012.67L1814.11 2059.22Z" stroke="#302F2C" stroke-width="50"/>
<path d="M1131 2668L1009 2662.5L1037 2646.5V2615.5L1031.5 2549L1068.5 2490H1110.5L1131 2517.5V2565.5V2668Z" fill="#909C9D"/>
<path d="M1149.7 2483.94C1162.96 2460.98 1192.32 2453.11 1215.28 2466.37L1270.63 2498.33C1287.92 2508.31 1296.7 2527.47 1294.24 2546.19L1294.11 2547.08C1292.04 2560.86 1301.22 2573.99 1315.14 2576.55C1339.18 2580.96 1361.13 2595.32 1374.53 2617.78C1400.11 2660.65 1384.69 2716.19 1340.67 2739.74L1235.5 2796L1108.59 2783.09C1095.2 2781.73 1082.59 2776.19 1072.53 2767.25L1010.87 2712.41C988.889 2692.86 1002.72 2656.5 1032.14 2656.5H1124.15L1130.03 2653.02L1192.32 2616.19C1209.59 2605.99 1210.84 2581.47 1194.69 2569.56L1169.61 2551.06L1168.48 2550.22L1167.27 2549.52C1144.31 2536.27 1136.44 2506.9 1149.7 2483.94Z" fill="#909C9D" stroke="#302F2C" stroke-width="50"/>
<path d="M1178.5 2624.5L1312 2554" stroke="#748080" stroke-width="50"/>
<path d="M1234.15 2804.5C1219.65 2728.5 1109.15 2654.5 1109.15 2654.5" stroke="#302F2C" stroke-width="50"/>
<path d="M1149.7 2483.94C1162.96 2460.98 1192.32 2453.11 1215.28 2466.37L1270.63 2498.33C1287.92 2508.31 1296.7 2527.47 1294.24 2546.19L1294.11 2547.08C1292.04 2560.86 1301.22 2573.99 1315.14 2576.55C1339.18 2580.96 1361.13 2595.32 1374.53 2617.78C1400.11 2660.65 1384.69 2716.19 1340.67 2739.74L1340.49 2739.83L1340.31 2739.93L1236.37 2797.75L1108.91 2783.13L1108.75 2783.11L1108.59 2783.09L1107.34 2782.95C1094.42 2781.38 1082.27 2775.91 1072.53 2767.25L1010.87 2712.41C988.889 2692.86 1002.72 2656.5 1032.14 2656.5H1124.15L1130.03 2653.02L1192.32 2616.19C1209.59 2605.99 1210.84 2581.47 1194.69 2569.56L1169.61 2551.06L1168.48 2550.22L1167.27 2549.52C1144.31 2536.27 1136.44 2506.9 1149.7 2483.94Z" stroke="#302F2C" stroke-width="50"/>
<path d="M1034.19 2616.76L1046 2656H1130C1127.5 2650.5 1123.2 2634.7 1122 2623.5C1121.09 2615.04 1128.97 2579.92 1136.32 2550.82C1140.27 2535.19 1135.7 2518.57 1124.02 2507.47L1120.23 2503.87C1109.48 2493.66 1094.3 2489.55 1079.87 2492.96C1071.83 2494.86 1065.29 2500.66 1062.44 2508.41L1035.21 2582.59C1031.18 2593.56 1030.82 2605.56 1034.19 2616.76Z" stroke="#302F2C" stroke-width="50"/>
<path d="M2465.89 2059.22L2590.86 2529.48C2594.73 2544.01 2604.37 2556.33 2617.55 2563.57L2974.79 2759.65L3056.96 2612.76L2754.74 2427.47L2746.15 2422.21L2743.62 2412.45L2639.62 2012.67L2465.89 2059.22Z" fill="#909C9D" stroke="#302F2C" stroke-width="50"/>
<path d="M2926 2580L2694.5 2432.5L2708.5 2425.5L2619.5 2114" stroke="#D0D2D2" stroke-width="50"/>
<path d="M2755.5 2423C2691.5 2394.5 2608.4 2460.75 2600 2541.55" stroke="#302F2C" stroke-width="50"/>
<path d="M2465.89 2059.22L2590.86 2529.48C2594.73 2544.01 2604.37 2556.33 2617.55 2563.57L2974.79 2759.65L3056.96 2612.76L2754.74 2427.47L2746.15 2422.21L2743.62 2412.45L2639.62 2012.67L2465.89 2059.22Z" stroke="#302F2C" stroke-width="50"/>
<path d="M3149 2668L3271 2662.5L3243 2646.5V2615.5L3248.5 2549L3211.5 2490H3169.5L3149 2517.5V2565.5V2668Z" fill="#909C9D"/>
<path d="M3130.3 2483.94C3117.04 2460.98 3087.68 2453.11 3064.72 2466.37L3009.37 2498.33C2992.08 2508.31 2983.3 2527.47 2985.76 2546.19L2985.89 2547.08C2987.96 2560.86 2978.78 2573.99 2964.86 2576.55C2940.82 2580.96 2918.87 2595.32 2905.47 2617.78C2879.89 2660.65 2895.31 2716.19 2939.33 2739.74L3044.5 2796L3171.41 2783.09C3184.8 2781.73 3197.41 2776.19 3207.47 2767.25L3269.13 2712.41C3291.11 2692.86 3277.28 2656.5 3247.86 2656.5H3155.85L3149.97 2653.02L3087.68 2616.19C3070.41 2605.99 3069.16 2581.47 3085.31 2569.56L3110.39 2551.06L3111.52 2550.22L3112.73 2549.52C3135.69 2536.27 3143.56 2506.9 3130.3 2483.94Z" fill="#909C9D" stroke="#302F2C" stroke-width="50"/>
<path d="M3101.5 2624.5L2968 2554" stroke="#748080" stroke-width="50"/>
<path d="M3045.85 2804.5C3060.35 2728.5 3170.85 2654.5 3170.85 2654.5" stroke="#302F2C" stroke-width="50"/>
<path d="M3130.3 2483.94C3117.04 2460.98 3087.68 2453.11 3064.72 2466.37L3009.37 2498.33C2992.08 2508.31 2983.3 2527.47 2985.76 2546.19L2985.89 2547.08C2987.96 2560.86 2978.78 2573.99 2964.86 2576.55C2940.82 2580.96 2918.87 2595.32 2905.47 2617.78C2879.89 2660.65 2895.31 2716.19 2939.33 2739.74L2939.51 2739.83L2939.69 2739.93L3043.63 2797.75L3171.09 2783.13L3171.25 2783.11L3171.41 2783.09L3172.66 2782.95C3185.58 2781.38 3197.73 2775.91 3207.47 2767.25L3269.13 2712.41C3291.11 2692.86 3277.28 2656.5 3247.86 2656.5H3155.85L3149.97 2653.02L3087.68 2616.19C3070.41 2605.99 3069.16 2581.47 3085.31 2569.56L3110.39 2551.06L3111.52 2550.22L3112.73 2549.52C3135.69 2536.27 3143.56 2506.9 3130.3 2483.94Z" stroke="#302F2C" stroke-width="50"/>
<path d="M3245.81 2616.76L3234 2656H3150C3152.5 2650.5 3156.8 2634.7 3158 2623.5C3158.91 2615.04 3151.03 2579.92 3143.68 2550.82C3139.73 2535.19 3144.3 2518.57 3155.98 2507.47L3159.77 2503.87C3170.52 2493.66 3185.7 2489.55 3200.13 2492.96C3208.17 2494.86 3214.71 2500.66 3217.56 2508.41L3244.79 2582.59C3248.82 2593.56 3249.18 2605.56 3245.81 2616.76Z" stroke="#302F2C" stroke-width="50"/>
<rect x="1614.5" y="1861" width="1053" height="294" rx="147" fill="#748080" stroke="#302F2C" stroke-width="50"/>
<rect x="1628.5" y="1881" width="1018" height="278" rx="132" fill="#D0D2D2"/>
<rect x="1628.5" y="1936" width="1018" height="223" rx="111.5" fill="#748080"/>
<rect x="1614.5" y="1861" width="1053" height="294" rx="147" stroke="#302F2C" stroke-width="50"/>
<mask id="path-55-inside-1_6_2547" fill="white">
<path d="M1772.5 1936C1772.5 1880.77 1817.27 1836 1872.5 1836H2481.5C2496.96 1836 2509.5 1848.54 2509.5 1864V2714C2509.5 2769.23 2464.73 2814 2409.5 2814H1872.5C1817.27 2814 1772.5 2769.23 1772.5 2714V1936Z"/>
</mask>
<path d="M1772.5 1936C1772.5 1880.77 1817.27 1836 1872.5 1836H2481.5C2496.96 1836 2509.5 1848.54 2509.5 1864V2714C2509.5 2769.23 2464.73 2814 2409.5 2814H1872.5C1817.27 2814 1772.5 2769.23 1772.5 2714V1936Z" fill="#FC991A" stroke="#302F2C" stroke-width="100" mask="url(#path-55-inside-1_6_2547)"/>
<path d="M1801 1912V2286H1841.72L2025.46 2194L2202.08 2026L2294.2 1865H2202.08H1841.72L1801 1912Z" fill="#748080"/>
<path d="M2260.42 1881L2259.08 1925L1895.59 1927.77C1878.56 1927.9 1864.83 1941.74 1864.83 1958.77V2288H1822.83V1933C1822.83 1907.04 1843.87 1881 1869.83 1881H2260.42Z" fill="#D0D2D2"/>
<mask id="path-58-inside-2_6_2547" fill="white">
<path d="M1772.5 1936C1772.5 1880.77 1817.27 1836 1872.5 1836H2481.5C2496.96 1836 2509.5 1848.54 2509.5 1864V2714C2509.5 2769.23 2464.73 2814 2409.5 2814H1872.5C1817.27 2814 1772.5 2769.23 1772.5 2714V1936Z"/>
</mask>
<path d="M1772.5 1936C1772.5 1880.77 1817.27 1836 1872.5 1836H2481.5C2496.96 1836 2509.5 1848.54 2509.5 1864V2714C2509.5 2769.23 2464.73 2814 2409.5 2814H1872.5C1817.27 2814 1772.5 2769.23 1772.5 2714V1936Z" stroke="#302F2C" stroke-width="100" stroke-linejoin="round" mask="url(#path-58-inside-2_6_2547)"/>
<path d="M1796.93 2297C1922.82 2264.17 2199.12 2131.5 2297.26 1863.5" stroke="#302F2C" stroke-width="50"/>
<path d="M2402.89 2350.33C2405 2336.68 2395.65 2323.91 2382.01 2321.79C2368.37 2319.68 2355.59 2329.03 2353.48 2342.67L2378.18 2346.5L2402.89 2350.33ZM1788.28 2554.5L1790.56 2579.4C1972.55 2562.7 2356.78 2398.16 2424.87 1855.61L2400.07 1852.5L2375.26 1849.39C2310.62 2364.44 1949.09 2514.64 1785.99 2529.6L1788.28 2554.5ZM2013.25 2745.5L2023.71 2768.2C2077.06 2743.6 2162.72 2693.08 2239.38 2622.55C2315.74 2552.29 2385.96 2459.58 2402.89 2350.33L2378.18 2346.5L2353.48 2342.67C2339.05 2435.82 2278.13 2518.95 2205.52 2585.75C2133.21 2652.28 2052.08 2700.06 2002.78 2722.8L2013.25 2745.5Z" fill="#302F2C"/>
<path d="M1802.32 2688L1381.82 2738V3165.5L2878.32 3178.5L2863.32 2730L2486.32 2688C2409.32 2721.5 2218.92 2753 2137.32 2753C2055.72 2753 1887.32 2721.5 1802.32 2688Z" fill="#FC991A" stroke="#302F2C" stroke-width="50"/>
<path d="M3025.1 2789.57C2975.11 2747.26 2912.08 2731.18 2860.55 2736.85C2750.4 2748.97 2567.63 2796.43 2398.3 2845.64C2229.98 2894.56 2077.23 2944.5 2027.32 2961.03V3238H2830.82C2942.43 3238 3012 3197.13 3054 3148.35C3096.81 3098.63 3112.32 3039.12 3112.32 3001.33C3112.32 2899.65 3074.41 2831.29 3025.1 2789.57Z" fill="#FC991A" stroke="#302F2C" stroke-width="50"/>
<path d="M1253.53 2789.57C1303.53 2747.26 1366.55 2731.18 1418.08 2736.85C1528.23 2748.97 1711 2796.43 1880.34 2845.64C2048.65 2894.56 2201.4 2944.5 2251.32 2961.03V3238H1447.82C1336.2 3238 1266.63 3197.13 1224.64 3148.35C1181.82 3098.63 1166.32 3039.12 1166.32 3001.33C1166.32 2899.65 1204.22 2831.29 1253.53 2789.57Z" fill="#FC991A" stroke="#302F2C" stroke-width="50"/>
<path d="M2254.32 3049.41C2254.32 3008.05 2293.5 2977.9 2333.48 2988.52L2512.59 3036.07C2559.59 3048.54 2592.32 3091.08 2592.32 3139.71C2592.32 3193.99 2548.31 3238 2494.03 3238H2254.32V3049.41Z" fill="#D0D2D2" stroke="#302F2C" stroke-width="50"/>
<path d="M2260.32 3048C2250.72 3048 2261.32 3064.67 2254.32 3070.5V3233.5L2391.82 3241L2507.32 3233.5C2517.32 3220.33 2553.24 3208 2561.82 3181.5C2582 3119.18 2537.08 3106.92 2435.69 3079.24L2434.82 3079C2312.11 3045.5 2269.31 3048 2260.32 3048Z" fill="#748080"/>
<path d="M2440.32 3243V3008" stroke="#302F2C" stroke-width="50"/>
<path d="M2254.32 3049.41C2254.32 3008.05 2293.5 2977.9 2333.48 2988.52L2512.59 3036.07C2559.59 3048.54 2592.32 3091.08 2592.32 3139.71C2592.32 3193.99 2548.31 3238 2494.03 3238H2254.32V3049.41Z" stroke="#302F2C" stroke-width="50"/>
<path d="M4517.58 1311.99C4526.52 1311.99 4535.46 1313.91 4544.4 1317.74C4554.62 1321.57 4562.93 1327.96 4569.31 1336.9L5098.12 2130.12L5046.39 2128.2L5577.11 1336.9C5591.16 1317.74 5608.41 1309.44 5628.85 1311.99C5644.17 1311.99 5656.95 1317.74 5667.16 1329.24C5678.66 1339.46 5684.41 1352.87 5684.41 1369.47V2595.7C5684.41 2611.02 5678.66 2624.44 5667.16 2635.93C5655.67 2647.43 5641.62 2653.18 5625.01 2653.18C5607.13 2653.18 5592.44 2647.43 5580.95 2635.93C5569.45 2624.44 5563.7 2611.02 5563.7 2595.7V1486.35L5598.19 1490.18L5113.45 2224C5109.62 2231.66 5103.87 2238.05 5096.2 2243.16C5088.54 2246.99 5079.6 2248.27 5069.38 2246.99C5060.44 2248.27 5051.5 2246.99 5042.56 2243.16C5034.89 2238.05 5028.51 2231.66 5023.4 2224L4536.74 1482.52L4573.14 1457.61V2595.7C4573.14 2611.02 4567.4 2624.44 4555.9 2635.93C4545.68 2647.43 4532.27 2653.18 4515.66 2653.18C4499.06 2653.18 4485.65 2647.43 4475.43 2635.93C4465.21 2624.44 4460.1 2611.02 4460.1 2595.7V1369.47C4460.1 1354.15 4465.21 1340.73 4475.43 1329.24C4486.93 1317.74 4500.98 1311.99 4517.58 1311.99ZM6851.52 2162.69C6851.52 2259.76 6830.44 2347.26 6788.29 2425.18C6746.14 2501.81 6688.66 2562.49 6615.86 2607.19C6543.05 2650.62 6460.02 2672.34 6366.78 2672.34C6276.09 2672.34 6193.7 2650.62 6119.62 2607.19C6046.81 2562.49 5988.69 2501.81 5945.26 2425.18C5903.11 2347.26 5882.04 2259.76 5882.04 2162.69C5882.04 2064.33 5903.11 1976.84 5945.26 1900.2C5988.69 1823.56 6046.81 1762.89 6119.62 1718.18C6193.7 1673.48 6276.09 1651.12 6366.78 1651.12C6460.02 1651.12 6543.05 1673.48 6615.86 1718.18C6688.66 1762.89 6746.14 1823.56 6788.29 1900.2C6830.44 1976.84 6851.52 2064.33 6851.52 2162.69ZM6736.56 2162.69C6736.56 2084.77 6720.6 2015.8 6688.66 1955.76C6656.73 1894.45 6612.66 1846.55 6556.46 1812.06C6501.54 1776.3 6438.31 1758.42 6366.78 1758.42C6297.8 1758.42 6235.22 1776.3 6179.01 1812.06C6122.81 1846.55 6078.11 1894.45 6044.9 1955.76C6012.96 2015.8 5997 2084.77 5997 2162.69C5997 2240.6 6012.96 2309.58 6044.9 2369.61C6078.11 2429.65 6122.81 2477.55 6179.01 2513.31C6235.22 2547.8 6297.8 2565.04 6366.78 2565.04C6438.31 2565.04 6501.54 2547.8 6556.46 2513.31C6612.66 2477.55 6656.73 2429.65 6688.66 2369.61C6720.6 2309.58 6736.56 2240.6 6736.56 2162.69ZM7480.95 1651.12C7565.25 1651.12 7632.31 1668.37 7682.12 1702.85C7733.22 1736.06 7769.62 1782.05 7791.33 1840.8C7814.33 1898.28 7825.82 1962.15 7825.82 2032.4V2595.7C7825.82 2611.02 7820.07 2624.44 7808.58 2635.93C7797.08 2647.43 7783.67 2653.18 7768.34 2653.18C7750.46 2653.18 7736.41 2647.43 7726.19 2635.93C7715.97 2624.44 7710.86 2611.02 7710.86 2595.7V2038.15C7710.86 1987.06 7702.56 1940.43 7685.96 1898.28C7669.35 1856.13 7641.89 1822.28 7603.57 1796.74C7566.53 1771.19 7517.35 1758.42 7456.04 1758.42C7401.12 1758.42 7348.75 1771.19 7298.93 1796.74C7250.39 1822.28 7210.8 1856.13 7180.14 1898.28C7149.48 1940.43 7134.16 1987.06 7134.16 2038.15V2595.7C7134.16 2611.02 7128.41 2624.44 7116.91 2635.93C7105.42 2647.43 7092 2653.18 7076.68 2653.18C7058.79 2653.18 7044.74 2647.43 7034.53 2635.93C7024.31 2624.44 7019.2 2611.02 7019.2 2595.7V1737.34C7019.2 1722.01 7024.31 1708.6 7034.53 1697.11C7046.02 1685.61 7060.07 1679.86 7076.68 1679.86C7093.28 1679.86 7106.69 1685.61 7116.91 1697.11C7128.41 1708.6 7134.16 1722.01 7134.16 1737.34V1898.28L7090.09 1967.26C7092.64 1926.38 7105.42 1887.43 7128.41 1850.38C7152.68 1812.06 7183.33 1778.21 7220.38 1748.84C7257.42 1718.18 7298.29 1694.55 7343 1677.95C7388.98 1660.06 7434.96 1651.12 7480.95 1651.12ZM8853.02 1670.28C8869.63 1670.28 8883.04 1676.03 8893.26 1687.53C8904.75 1699.02 8910.5 1713.07 8910.5 1729.68V2978.89C8910.5 2994.22 8904.75 3007.63 8893.26 3019.13C8881.76 3030.62 8868.35 3036.37 8853.02 3036.37C8836.42 3036.37 8822.37 3030.62 8810.87 3019.13C8800.65 3007.63 8795.54 2994.22 8795.54 2978.89V2367.7L8828.12 2340.87C8828.12 2376.64 8818.54 2414.32 8799.38 2453.91C8780.22 2492.23 8752.75 2528 8716.99 2561.21C8682.5 2594.42 8641.63 2621.24 8594.37 2641.68C8548.38 2662.12 8498.57 2672.34 8444.92 2672.34C8359.34 2672.34 8282.06 2649.98 8213.09 2605.28C8145.39 2560.57 8091.74 2499.9 8052.15 2423.26C8012.55 2346.62 7992.75 2259.12 7992.75 2160.77C7992.75 2063.69 8012.55 1976.84 8052.15 1900.2C8091.74 1822.28 8145.39 1761.61 8213.09 1718.18C8280.79 1673.48 8357.43 1651.12 8443.01 1651.12C8495.38 1651.12 8545.19 1660.7 8592.45 1679.86C8639.71 1699.02 8681.22 1725.21 8716.99 1758.42C8754.03 1791.63 8782.77 1829.95 8803.21 1873.37C8824.92 1915.53 8835.78 1959.59 8835.78 2005.58L8795.54 1976.84V1729.68C8795.54 1713.07 8800.65 1699.02 8810.87 1687.53C8822.37 1676.03 8836.42 1670.28 8853.02 1670.28ZM8454.5 2565.04C8523.48 2565.04 8583.51 2547.8 8634.6 2513.31C8686.97 2477.55 8727.85 2429.65 8757.22 2369.61C8787.88 2308.3 8803.21 2238.69 8803.21 2160.77C8803.21 2084.13 8787.88 2015.8 8757.22 1955.76C8727.85 1894.45 8686.97 1846.55 8634.6 1812.06C8582.23 1776.3 8522.2 1758.42 8454.5 1758.42C8388.08 1758.42 8328.05 1776.3 8274.4 1812.06C8222.03 1846.55 8180.52 1894.45 8149.86 1955.76C8120.48 2015.8 8105.79 2084.13 8105.79 2160.77C8105.79 2237.41 8120.48 2306.38 8149.86 2367.7C8180.52 2429.01 8222.03 2477.55 8274.4 2513.31C8328.05 2547.8 8388.08 2565.04 8454.5 2565.04ZM9867.43 1679.86C9884.03 1679.86 9897.44 1685.61 9907.66 1697.11C9919.16 1708.6 9924.91 1722.01 9924.91 1737.34V2277.65C9924.91 2404.1 9889.14 2500.54 9817.61 2566.96C9746.08 2633.38 9649.64 2666.59 9528.3 2666.59C9408.23 2666.59 9312.43 2633.38 9240.9 2566.96C9170.65 2500.54 9135.52 2404.1 9135.52 2277.65V1737.34C9135.52 1722.01 9140.63 1708.6 9150.85 1697.11C9162.35 1685.61 9176.4 1679.86 9193 1679.86C9209.61 1679.86 9223.02 1685.61 9233.24 1697.11C9244.73 1708.6 9250.48 1722.01 9250.48 1737.34V2277.65C9250.48 2369.61 9274.75 2439.86 9323.29 2488.4C9373.11 2535.66 9441.44 2559.29 9528.3 2559.29C9616.43 2559.29 9685.41 2535.66 9735.22 2488.4C9785.04 2439.86 9809.95 2369.61 9809.95 2277.65V1737.34C9809.95 1722.01 9815.06 1708.6 9825.27 1697.11C9835.49 1685.61 9849.54 1679.86 9867.43 1679.86ZM10592.3 2672.34C10494 2672.34 10407.1 2651.26 10331.7 2609.11C10256.4 2566.96 10197.6 2508.2 10155.5 2432.84C10113.3 2357.48 10092.2 2269.34 10092.2 2168.43C10092.2 2059.86 10113.3 1967.26 10155.5 1890.62C10198.9 1813.98 10254.5 1755.22 10322.2 1714.35C10391.1 1672.2 10463.9 1651.12 10540.6 1651.12C10596.8 1651.12 10651.1 1661.34 10703.4 1681.78C10757.1 1700.94 10804.3 1730.32 10845.2 1769.91C10887.4 1808.23 10920.6 1855.49 10944.8 1911.69C10970.4 1967.9 10984.4 2033.04 10987 2107.12C10985.7 2122.45 10979.3 2135.86 10967.8 2147.36C10956.3 2157.58 10942.9 2162.69 10927.6 2162.69H10159.3L10136.3 2059.22H10891.2L10866.3 2082.22V2043.9C10861.2 1983.86 10842 1932.77 10808.8 1890.62C10775.6 1848.47 10735.4 1816.53 10688.1 1794.82C10640.8 1773.11 10591.7 1762.25 10540.6 1762.25C10502.3 1762.25 10462.7 1769.91 10421.8 1785.24C10382.2 1800.57 10345.8 1824.84 10312.6 1858.05C10280.6 1889.98 10254.5 1931.49 10234 1982.59C10213.6 2032.4 10203.4 2091.8 10203.4 2160.77C10203.4 2236.13 10218.7 2304.47 10249.3 2365.78C10280 2427.09 10324.1 2475.63 10381.6 2511.39C10440.3 2547.16 10509.9 2565.04 10590.4 2565.04C10635.1 2565.04 10675.3 2558.65 10711.1 2545.88C10746.9 2533.11 10778.2 2516.5 10805 2496.07C10831.8 2474.35 10854.2 2452 10872 2429.01C10886.1 2417.51 10900.1 2411.76 10914.2 2411.76C10927 2411.76 10937.8 2416.87 10946.8 2427.09C10957 2437.31 10962.1 2448.81 10962.1 2461.58C10962.1 2476.91 10955.7 2490.32 10942.9 2501.81C10904.6 2547.8 10854.8 2588.03 10793.5 2622.52C10732.2 2655.73 10665.1 2672.34 10592.3 2672.34Z" fill="#D0D2D2"/>
</svg>
